<svg id="starburst" viewBox="0 0 860 552" xmlns="http://www.w3.org/2000/svg" data-fg-d3bl1="0.8:1.3793:/src/app/App.tsx:46:7:1526:1004:e:svg:etete" data-fgid-d3bl1=":r1:" style="width: 100%;"><defs data-fg-d3bl2="0.8:1.3793:/src/app/App.tsx:52:9:1677:507:e:defs:e"><filter id="roughen" x="-15%" y="-15%" width="130%" height="130%" data-fg-d3bl3="0.8:1.3793:/src/app/App.tsx:53:11:1694:474:e:filter:ete"><feTurbulence type="turbulence" baseFrequency="0.04" numOctaves="4" seed="7" result="noise" data-fg-d3bl4="0.8:1.3793:/src/app/App.tsx:54:13:1773:176:e:feTurbulence"/><feDisplacementMap in="SourceGraphic" in2="noise" scale="5" xChannelSelector="R" yChannelSelector="G" data-fg-d3bl5="0.8:1.3793:/src/app/App.tsx:61:13:1962:186:e:feDisplacementMap"/></filter></defs><path d="M 447.68,58.30 L 459.34,168.66 L 507.02,90.54 L 514.48,181.60 L 689.29,90.21 L 559.42,205.94 L 656.16,177.58 L 588.76,238.72 L 791.53,247.36 L 598.95,276.00 L 733.91,303.56 L 588.76,313.28 L 753.77,422.26 L 559.42,346.06 L 619.22,406.91 L 514.48,370.40 L 544.05,489.69 L 459.34,383.34 L 457.69,480.22 L 400.66,383.34 L 274.28,501.65 L 345.53,370.40 L 255.37,420.21 L 300.58,346.06 L 99.93,384.50 L 271.24,313.28 L 136.73,323.17 L 261.05,276.00 L 41.87,222.77 L 271.24,238.72 L 175.74,199.51 L 300.58,205.94 L 216.39,93.11 L 345.52,181.60 L 310.85,103.34 L 400.66,168.66 Z" fill="#000000" transform="translate(6,7)" class="starburst-shadow" data-fg-d3bl6="0.8:1.3793:/src/app/App.tsx:71:9:2194:92:e:path"/><path d="M 447.68,58.30 L 459.34,168.66 L 507.02,90.54 L 514.48,181.60 L 689.29,90.21 L 559.42,205.94 L 656.16,177.58 L 588.76,238.72 L 791.53,247.36 L 598.95,276.00 L 733.91,303.56 L 588.76,313.28 L 753.77,422.26 L 559.42,346.06 L 619.22,406.91 L 514.48,370.40 L 544.05,489.69 L 459.34,383.34 L 457.69,480.22 L 400.66,383.34 L 274.28,501.65 L 345.53,370.40 L 255.37,420.21 L 300.58,346.06 L 99.93,384.50 L 271.24,313.28 L 136.73,323.17 L 261.05,276.00 L 41.87,222.77 L 271.24,238.72 L 175.74,199.51 L 300.58,205.94 L 216.39,93.11 L 345.52,181.60 L 310.85,103.34 L 400.66,168.66 Z" fill="#fdea2e" stroke="#1a1a1a" stroke-width="2.5" stroke-linejoin="round" filter="url(#roughen)" class="starburst-fill" data-fg-d3bl7="0.8:1.3793:/src/app/App.tsx:72:9:2295:222:e:path"/></svg>